<?xml version="1.0" encoding="UTF-8" standalone="no"?>
<svg width="512" height="512" viewBox="0 0 512 512" xmlns="http://www.w3.org/2000/svg">
    <!-- Background circle -->
    <circle cx="256" cy="256" r="240" fill="#f0f9ff"/>
    
    <!-- Cloud base (Kubernetes representation) -->
    <path d="M 150,220 
             C 150,180 200,160 250,160
             C 300,160 350,180 350,220
             C 350,260 300,280 250,280
             C 200,280 150,260 150,220" 
          fill="#60a5fa" stroke="#2563eb" stroke-width="12"/>
    
    <!-- Cute face -->
    <circle cx="210" cy="210" r="15" fill="#1e40af"/> <!-- Left eye -->
    <circle cx="290" cy="210" r="15" fill="#1e40af"/> <!-- Right eye -->
    <path d="M 220,240 C 240,260 260,260 280,240" 
          fill="none" stroke="#1e40af" stroke-width="8" stroke-linecap="round"/> <!-- Smile -->
    
    <!-- Heartbeat/pulse line -->
    <path d="M 100,350 
             L 150,350 
             L 180,300 
             L 220,400 
             L 260,320 
             L 300,350 
             L 400,350" 
          fill="none" stroke="#dc2626" stroke-width="12" stroke-linecap="round" stroke-linejoin="round"/>
    
    <!-- Magnifying glass -->
    <circle cx="340" cy="180" r="25" fill="none" stroke="#475569" stroke-width="8"/>
    <line x1="360" y1="200" x2="380" y2="220" stroke="#475569" stroke-width="8" stroke-linecap="round"/>
    
    <!-- Decorative elements -->
    <circle cx="160" cy="180" r="8" fill="#93c5fd"/>
    <circle cx="320" cy="240" r="8" fill="#93c5fd"/>
    <circle cx="200" cy="260" r="8" fill="#93c5fd"/>
</svg>